<?xml version="1.0" encoding="UTF-8"?>
<svg xmlns="http://www.w3.org/2000/svg" xmlns:xlink="http://www.w3.org/1999/xlink" width="20pt" height="20pt" viewBox="0 0 20 20" version="1.1">
<g id="surface1">
<path style=" stroke:none;fill-rule:nonzero;fill:rgb(94.901961%,94.901961%,94.901961%);fill-opacity:1;" d="M 20 10 C 20 13.214844 18.480469 16.078125 16.125 17.90625 C 14.433594 19.21875 12.308594 20 10 20 C 7.691406 20 5.566406 19.21875 3.875 17.90625 C 1.519531 16.078125 0 13.214844 0 10 C 0 4.476562 4.476562 0 10 0 C 15.523438 0 20 4.476562 20 10 Z M 20 10 "/>
<path style=" stroke:none;fill-rule:nonzero;fill:rgb(0%,41.960784%,75.294118%);fill-opacity:1;" d="M 17.265625 4.667969 L 16.125 17.90625 C 14.433594 19.21875 12.308594 20 10 20 C 7.691406 20 5.566406 19.21875 3.875 17.90625 L 2.734375 4.667969 Z M 17.265625 4.667969 "/>
<path style=" stroke:none;fill-rule:nonzero;fill:rgb(0%,58.823529%,86.27451%);fill-opacity:1;" d="M 10 5.910156 L 10 19.738281 L 14.777344 18.390625 L 15.839844 5.910156 Z M 10 5.910156 "/>
<path style=" stroke:none;fill-rule:nonzero;fill:rgb(100%,100%,100%);fill-opacity:1;" d="M 14.21875 11.320312 L 10.773438 11.320312 L 14.375 9.488281 L 14.53125 7.644531 L 5.46875 7.644531 L 5.628906 9.523438 L 9.265625 9.523438 L 5.773438 11.269531 L 5.9375 13.191406 L 12.164062 13.191406 L 11.960938 15.484375 L 10 16.015625 L 7.960938 15.441406 L 7.90625 14.015625 L 6.007812 14.015625 L 6.246094 16.828125 L 10 17.890625 L 13.753906 16.828125 Z M 14.21875 11.320312 "/>
<path style=" stroke:none;fill-rule:nonzero;fill:rgb(13.333333%,12.941176%,13.72549%);fill-opacity:1;" d="M 6.460938 2.625 L 6.460938 1.320312 L 8.335938 1.320312 L 8.335938 0.613281 L 5.777344 0.613281 L 5.777344 3.332031 L 8.335938 3.332031 L 8.335938 2.625 Z M 6.460938 2.625 "/>
<path style=" stroke:none;fill-rule:nonzero;fill:rgb(13.333333%,12.941176%,13.72549%);fill-opacity:1;" d="M 9.433594 1.675781 L 9.433594 1.351562 L 11.300781 1.351562 L 11.300781 0.613281 L 8.746094 0.613281 L 8.746094 2.300781 L 10.578125 2.300781 L 10.578125 2.625 L 8.746094 2.625 L 8.746094 3.332031 L 11.300781 3.332031 L 11.300781 1.675781 Z M 9.433594 1.675781 "/>
<path style=" stroke:none;fill-rule:nonzero;fill:rgb(13.333333%,12.941176%,13.72549%);fill-opacity:1;" d="M 12.355469 1.675781 L 12.355469 1.351562 L 14.222656 1.351562 L 14.222656 0.613281 L 11.664062 0.613281 L 11.664062 2.300781 L 13.496094 2.300781 L 13.496094 2.625 L 11.664062 2.625 L 11.664062 3.332031 L 14.222656 3.332031 L 14.222656 1.675781 Z M 12.355469 1.675781 "/>
</g>
</svg>
