<?xml version="1.0" encoding="UTF-8"?>
<svg xmlns="http://www.w3.org/2000/svg" xmlns:xlink="http://www.w3.org/1999/xlink" width="20pt" height="20pt" viewBox="0 0 20 20" version="1.1">
<g id="surface1">
<path style=" stroke:none;fill-rule:nonzero;fill:rgb(89.411765%,72.941176%,25.882353%);fill-opacity:1;" d="M 20 10 C 20 11.304688 19.75 12.546875 19.296875 13.6875 C 19.054688 14.300781 18.753906 14.878906 18.402344 15.425781 C 17.960938 16.105469 17.441406 16.726562 16.855469 17.277344 C 16.511719 17.601562 16.148438 17.902344 15.761719 18.175781 C 14.132812 19.324219 12.144531 20 10 20 C 7.855469 20 5.867188 19.324219 4.238281 18.175781 C 3.753906 17.832031 3.304688 17.449219 2.890625 17.03125 C 1.101562 15.226562 0 12.742188 0 10 C 0 7.257812 1.101562 4.773438 2.890625 2.96875 C 3.328125 2.523438 3.808594 2.121094 4.324219 1.765625 C 5.9375 0.652344 7.890625 0 10 0 C 12.109375 0 14.0625 0.652344 15.675781 1.765625 C 16.070312 2.039062 16.441406 2.335938 16.792969 2.660156 C 17.40625 3.226562 17.945312 3.871094 18.402344 4.574219 C 18.753906 5.121094 19.054688 5.699219 19.296875 6.3125 C 19.75 7.453125 20 8.695312 20 10 Z M 20 10 "/>
<path style=" stroke:none;fill-rule:nonzero;fill:rgb(94.901961%,94.901961%,94.901961%);fill-opacity:1;" d="M 15.273438 9.101562 C 14.996094 8.292969 13.855469 8.292969 13.632812 8.960938 C 13.410156 9.628906 14.160156 10.019531 15.332031 10.410156 C 16.5 10.796875 17.222656 11.828125 17.085938 12.746094 C 16.945312 13.664062 16.554688 14.863281 14.246094 14.863281 C 12.800781 14.863281 12 13.960938 11.601562 13.28125 L 12.910156 12.496094 C 12.910156 12.496094 13.355469 13.441406 14.191406 13.441406 C 15.023438 13.441406 15.359375 13.164062 15.359375 12.523438 C 15.359375 11.746094 12.660156 11.464844 12.242188 10.128906 C 11.824219 8.792969 12.378906 6.902344 14.328125 7.039062 C 15.546875 7.128906 16.230469 7.726562 16.574219 8.160156 Z M 15.273438 9.101562 "/>
<path style=" stroke:none;fill-rule:nonzero;fill:rgb(94.901961%,94.901961%,94.901961%);fill-opacity:1;" d="M 9.207031 7.179688 C 9.207031 7.179688 9.207031 11.882812 9.207031 12.523438 C 9.207031 13.164062 8.652344 13.5 8.09375 13.386719 C 7.539062 13.277344 7.285156 12.609375 7.285156 12.609375 L 6.007812 13.46875 C 6.007812 13.46875 6.285156 14.75 8.039062 14.863281 C 9.792969 14.972656 10.792969 13.914062 10.792969 13.023438 C 10.792969 12.132812 10.792969 7.179688 10.792969 7.179688 Z M 9.207031 7.179688 "/>
<path style=" stroke:none;fill-rule:nonzero;fill:rgb(94.901961%,94.901961%,94.901961%);fill-opacity:1;" d="M 2.890625 1.765625 L 2.890625 17.03125 C 3.304688 17.449219 3.753906 17.832031 4.238281 18.175781 L 15.761719 18.175781 C 16.148438 17.902344 16.511719 17.601562 16.855469 17.277344 L 3.785156 17.277344 L 3.785156 2.660156 L 18.402344 2.660156 L 18.402344 15.425781 C 18.753906 14.878906 19.054688 14.300781 19.296875 13.6875 L 19.296875 1.765625 Z M 2.890625 1.765625 "/>
<path style=" stroke:none;fill-rule:nonzero;fill:rgb(24.705882%,29.019608%,26.27451%);fill-opacity:1;" d="M 5.019531 13.246094 C 5.019531 14.125 4.308594 14.835938 3.433594 14.835938 C 2.554688 14.835938 1.84375 14.125 1.84375 13.246094 C 1.84375 12.371094 2.554688 11.660156 3.433594 11.660156 C 4.308594 11.660156 5.019531 12.371094 5.019531 13.246094 Z M 5.019531 13.246094 "/>
</g>
</svg>
