<?xml version="1.0" encoding="UTF-8"?>
<svg xmlns="http://www.w3.org/2000/svg" xmlns:xlink="http://www.w3.org/1999/xlink" width="20pt" height="20pt" viewBox="0 0 20 20" version="1.1">
<g id="surface1">
<path style=" stroke:none;fill-rule:nonzero;fill:rgb(94.901961%,94.901961%,94.901961%);fill-opacity:1;" d="M 20 10 C 20 13.214844 18.480469 16.078125 16.125 17.90625 C 14.433594 19.21875 12.308594 20 10 20 C 7.714844 20 5.605469 19.234375 3.921875 17.941406 C 1.539062 16.113281 0 13.234375 0 10 C 0 4.476562 4.476562 0 10 0 C 15.523438 0 20 4.476562 20 10 Z M 20 10 "/>
<path style=" stroke:none;fill-rule:nonzero;fill:rgb(90.196078%,29.803922%,9.411765%);fill-opacity:1;" d="M 17.265625 4.667969 L 16.125 17.90625 C 14.433594 19.21875 12.308594 20 10 20 C 7.714844 20 5.605469 19.234375 3.921875 17.941406 L 2.777344 4.667969 Z M 17.265625 4.667969 "/>
<path style=" stroke:none;fill-rule:nonzero;fill:rgb(95.294118%,39.607843%,9.411765%);fill-opacity:1;" d="M 10.019531 5.90625 L 10.019531 19.695312 L 14.785156 18.351562 L 15.847656 5.90625 Z M 10.019531 5.90625 "/>
<path style=" stroke:none;fill-rule:nonzero;fill:rgb(100%,100%,100%);fill-opacity:1;" d="M 5.503906 7.636719 L 5.972656 13.167969 L 12.179688 13.167969 L 11.976562 15.453125 L 10.019531 15.980469 L 7.988281 15.410156 L 7.9375 13.988281 L 6.039062 13.988281 L 6.277344 16.792969 L 10.019531 17.851562 L 13.765625 16.792969 L 14.230469 11.300781 L 7.691406 11.300781 L 7.53125 9.511719 L 14.382812 9.472656 L 14.539062 7.636719 Z M 5.503906 7.636719 "/>
<path style=" stroke:none;fill-rule:nonzero;fill:rgb(0%,0%,0%);fill-opacity:1;" d="M 5.90625 0.65625 L 5.90625 1.605469 L 4.996094 1.605469 L 4.996094 0.65625 L 4.152344 0.65625 L 4.152344 3.378906 L 4.996094 3.378906 L 4.996094 2.492188 L 5.90625 2.492188 L 5.90625 3.378906 L 6.75 3.378906 L 6.75 0.65625 Z M 5.90625 0.65625 "/>
<path style=" stroke:none;fill-rule:nonzero;fill:rgb(0%,0%,0%);fill-opacity:1;" d="M 9.746094 0.65625 L 7.148438 0.65625 L 7.148438 1.605469 L 7.996094 1.605469 L 7.996094 3.402344 L 8.902344 3.402344 L 8.902344 1.605469 L 9.746094 1.605469 Z M 9.746094 0.65625 "/>
<path style=" stroke:none;fill-rule:nonzero;fill:rgb(0%,0%,0%);fill-opacity:1;" d="M 14.582031 2.535156 L 14.582031 0.675781 L 13.671875 0.675781 L 13.671875 3.402344 L 15.890625 3.402344 L 15.890625 2.535156 Z M 14.582031 2.535156 "/>
<path style=" stroke:none;fill-rule:nonzero;fill:rgb(0%,0%,0%);fill-opacity:1;" d="M 12.300781 0.675781 L 11.667969 1.648438 L 11.035156 0.675781 L 10.125 0.675781 L 10.125 3.402344 L 11.035156 3.402344 L 11.035156 2.050781 L 11.667969 3.019531 L 12.300781 2.050781 L 12.300781 3.402344 L 13.210938 3.402344 L 13.210938 0.675781 Z M 12.300781 0.675781 "/>
</g>
</svg>
