<?xml version="1.0" encoding="UTF-8"?>
<svg xmlns="http://www.w3.org/2000/svg" xmlns:xlink="http://www.w3.org/1999/xlink" width="15pt" height="15pt" viewBox="0 0 15 15" version="1.1">
<g id="surface1">
<path style=" stroke:none;fill-rule:nonzero;fill:rgb(0%,0%,0%);fill-opacity:1;" d="M 7.597656 7.984375 L 5.9375 12.804688 C 6.433594 12.949219 6.957031 13.027344 7.5 13.027344 C 8.144531 13.027344 8.761719 12.917969 9.335938 12.714844 C 9.320312 12.691406 9.308594 12.667969 9.296875 12.640625 Z M 7.597656 7.984375 "/>
<path style=" stroke:none;fill-rule:nonzero;fill:rgb(0%,0%,0%);fill-opacity:1;" d="M 11.234375 7.222656 C 11.234375 6.539062 10.988281 6.0625 10.777344 5.695312 C 10.496094 5.242188 10.234375 4.855469 10.234375 4.398438 C 10.234375 3.890625 10.621094 3.417969 11.164062 3.417969 C 11.1875 3.417969 11.210938 3.421875 11.234375 3.421875 C 10.25 2.519531 8.941406 1.972656 7.5 1.972656 C 5.570312 1.972656 3.871094 2.960938 2.878906 4.460938 C 3.011719 4.46875 3.132812 4.46875 3.238281 4.46875 C 3.816406 4.46875 4.710938 4.398438 4.710938 4.398438 C 5.007812 4.382812 5.042969 4.820312 4.746094 4.855469 C 4.746094 4.855469 4.445312 4.890625 4.113281 4.90625 L 6.125 10.898438 L 7.335938 7.269531 L 6.476562 4.90625 C 6.175781 4.890625 5.894531 4.855469 5.894531 4.855469 C 5.597656 4.835938 5.632812 4.382812 5.929688 4.398438 C 5.929688 4.398438 6.84375 4.46875 7.386719 4.46875 C 7.964844 4.46875 8.859375 4.398438 8.859375 4.398438 C 9.15625 4.382812 9.191406 4.820312 8.894531 4.855469 C 8.894531 4.855469 8.59375 4.890625 8.261719 4.90625 L 10.261719 10.851562 L 10.8125 9.007812 C 11.050781 8.242188 11.234375 7.695312 11.234375 7.222656 Z M 11.234375 7.222656 "/>
<path style=" stroke:none;fill-rule:nonzero;fill:rgb(0%,0%,0%);fill-opacity:1;" d="M 1.972656 7.5 C 1.972656 9.6875 3.242188 11.578125 5.085938 12.476562 L 2.449219 5.25 C 2.144531 5.9375 1.972656 6.699219 1.972656 7.5 Z M 1.972656 7.5 "/>
<path style=" stroke:none;fill-rule:nonzero;fill:rgb(0%,0%,0%);fill-opacity:1;" d="M 10.28125 12.277344 C 11.925781 11.320312 13.027344 9.539062 13.027344 7.5 C 13.027344 6.539062 12.785156 5.632812 12.351562 4.847656 C 12.375 5.023438 12.390625 5.210938 12.390625 5.414062 C 12.390625 5.976562 12.285156 6.605469 11.96875 7.394531 Z M 10.28125 12.277344 "/>
<path style=" stroke:none;fill-rule:nonzero;fill:rgb(0%,0%,0%);fill-opacity:1;" d="M 14.203125 0 L 0.796875 0 C 0.355469 0 0 0.355469 0 0.796875 L 0 14.203125 C 0 14.644531 0.355469 15 0.796875 15 L 14.203125 15 C 14.644531 15 15 14.644531 15 14.203125 L 15 0.796875 C 15 0.355469 14.644531 0 14.203125 0 Z M 7.5 13.648438 C 4.109375 13.648438 1.351562 10.890625 1.351562 7.5 C 1.351562 4.109375 4.109375 1.351562 7.5 1.351562 C 10.890625 1.351562 13.648438 4.109375 13.648438 7.5 C 13.648438 10.890625 10.890625 13.648438 7.5 13.648438 Z M 7.5 13.648438 "/>
</g>
</svg>
