<?xml version="1.0" encoding="UTF-8"?>
<svg xmlns="http://www.w3.org/2000/svg" xmlns:xlink="http://www.w3.org/1999/xlink" width="20pt" height="20pt" viewBox="0 0 20 20" version="1.1">
<g id="surface1">
<path style=" stroke:none;fill-rule:nonzero;fill:rgb(0%,0%,0%);fill-opacity:1;" d="M 10.128906 10.644531 L 7.917969 17.070312 C 8.578125 17.265625 9.277344 17.371094 10 17.371094 C 10.859375 17.371094 11.683594 17.222656 12.449219 16.953125 C 12.429688 16.921875 12.410156 16.890625 12.394531 16.851562 Z M 10.128906 10.644531 "/>
<path style=" stroke:none;fill-rule:nonzero;fill:rgb(0%,0%,0%);fill-opacity:1;" d="M 14.976562 9.628906 C 14.976562 8.714844 14.648438 8.085938 14.371094 7.59375 C 13.996094 6.988281 13.644531 6.472656 13.644531 5.867188 C 13.644531 5.1875 14.160156 4.558594 14.882812 4.558594 C 14.914062 4.558594 14.945312 4.5625 14.980469 4.5625 C 13.667969 3.363281 11.921875 2.628906 10 2.628906 C 7.425781 2.628906 5.160156 3.949219 3.839844 5.949219 C 4.015625 5.957031 4.175781 5.960938 4.316406 5.960938 C 5.085938 5.960938 6.28125 5.867188 6.28125 5.867188 C 6.675781 5.84375 6.722656 6.425781 6.328125 6.472656 C 6.328125 6.472656 5.929688 6.519531 5.484375 6.542969 L 8.167969 14.527344 L 9.78125 9.691406 L 8.632812 6.542969 C 8.234375 6.519531 7.859375 6.472656 7.859375 6.472656 C 7.460938 6.449219 7.507812 5.84375 7.90625 5.867188 C 7.90625 5.867188 9.125 5.960938 9.847656 5.960938 C 10.621094 5.960938 11.8125 5.867188 11.8125 5.867188 C 12.210938 5.84375 12.257812 6.425781 11.859375 6.472656 C 11.859375 6.472656 11.460938 6.519531 11.015625 6.542969 L 13.679688 14.46875 L 14.417969 12.011719 C 14.734375 10.992188 14.976562 10.257812 14.976562 9.628906 Z M 14.976562 9.628906 "/>
<path style=" stroke:none;fill-rule:nonzero;fill:rgb(0%,0%,0%);fill-opacity:1;" d="M 2.628906 10 C 2.628906 12.917969 4.324219 15.4375 6.78125 16.632812 L 3.265625 7 C 2.855469 7.917969 2.628906 8.929688 2.628906 10 Z M 2.628906 10 "/>
<path style=" stroke:none;fill-rule:nonzero;fill:rgb(0%,0%,0%);fill-opacity:1;" d="M 13.707031 16.371094 C 15.898438 15.09375 17.371094 12.71875 17.371094 10 C 17.371094 8.71875 17.042969 7.511719 16.46875 6.460938 C 16.5 6.699219 16.519531 6.949219 16.519531 7.21875 C 16.519531 7.96875 16.378906 8.808594 15.957031 9.859375 Z M 13.707031 16.371094 "/>
<path style=" stroke:none;fill-rule:nonzero;fill:rgb(0%,0%,0%);fill-opacity:1;" d="M 18.9375 0 L 1.0625 0 C 0.476562 0 0 0.476562 0 1.0625 L 0 18.9375 C 0 19.523438 0.476562 20 1.0625 20 L 18.9375 20 C 19.523438 20 20 19.523438 20 18.9375 L 20 1.0625 C 20 0.476562 19.523438 0 18.9375 0 Z M 10 18.199219 C 5.480469 18.199219 1.800781 14.519531 1.800781 10 C 1.800781 5.476562 5.480469 1.800781 10 1.800781 C 14.523438 1.800781 18.199219 5.476562 18.199219 10 C 18.199219 14.519531 14.523438 18.199219 10 18.199219 Z M 10 18.199219 "/>
</g>
</svg>
