<?xml version="1.0" encoding="UTF-8"?>
<svg xmlns="http://www.w3.org/2000/svg" xmlns:xlink="http://www.w3.org/1999/xlink" width="10pt" height="10pt" viewBox="0 0 10 10" version="1.1">
<g id="surface1">
<path style=" stroke:none;fill-rule:nonzero;fill:rgb(0%,0%,0%);fill-opacity:1;" d="M 5.066406 5.320312 L 3.957031 8.535156 C 4.289062 8.632812 4.636719 8.6875 5 8.6875 C 5.429688 8.6875 5.839844 8.613281 6.222656 8.476562 C 6.214844 8.460938 6.207031 8.445312 6.199219 8.425781 Z M 5.066406 5.320312 "/>
<path style=" stroke:none;fill-rule:nonzero;fill:rgb(0%,0%,0%);fill-opacity:1;" d="M 7.488281 4.8125 C 7.488281 4.359375 7.324219 4.042969 7.183594 3.796875 C 6.996094 3.492188 6.824219 3.238281 6.824219 2.933594 C 6.824219 2.59375 7.078125 2.277344 7.441406 2.277344 C 7.457031 2.277344 7.472656 2.28125 7.488281 2.28125 C 6.832031 1.679688 5.960938 1.3125 5 1.3125 C 3.710938 1.3125 2.578125 1.972656 1.921875 2.976562 C 2.007812 2.976562 2.089844 2.980469 2.15625 2.980469 C 2.542969 2.980469 3.140625 2.933594 3.140625 2.933594 C 3.339844 2.921875 3.363281 3.214844 3.164062 3.238281 C 3.164062 3.238281 2.964844 3.261719 2.742188 3.273438 L 4.085938 7.265625 L 4.890625 4.84375 L 4.316406 3.273438 C 4.117188 3.261719 3.929688 3.238281 3.929688 3.238281 C 3.730469 3.226562 3.753906 2.921875 3.953125 2.933594 C 3.953125 2.933594 4.5625 2.980469 4.925781 2.980469 C 5.308594 2.980469 5.90625 2.933594 5.90625 2.933594 C 6.105469 2.921875 6.128906 3.214844 5.929688 3.238281 C 5.929688 3.238281 5.730469 3.261719 5.507812 3.273438 L 6.839844 7.234375 L 7.207031 6.003906 C 7.367188 5.496094 7.488281 5.128906 7.488281 4.8125 Z M 7.488281 4.8125 "/>
<path style=" stroke:none;fill-rule:nonzero;fill:rgb(0%,0%,0%);fill-opacity:1;" d="M 1.3125 5 C 1.3125 6.457031 2.160156 7.71875 3.390625 8.316406 L 1.632812 3.5 C 1.429688 3.957031 1.3125 4.464844 1.3125 5 Z M 1.3125 5 "/>
<path style=" stroke:none;fill-rule:nonzero;fill:rgb(0%,0%,0%);fill-opacity:1;" d="M 6.851562 8.1875 C 7.949219 7.546875 8.6875 6.359375 8.6875 5 C 8.6875 4.359375 8.523438 3.757812 8.234375 3.230469 C 8.25 3.347656 8.257812 3.476562 8.257812 3.609375 C 8.257812 3.984375 8.191406 4.40625 7.980469 4.929688 Z M 6.851562 8.1875 "/>
<path style=" stroke:none;fill-rule:nonzero;fill:rgb(0%,0%,0%);fill-opacity:1;" d="M 9.46875 0 L 0.53125 0 C 0.238281 0 0 0.238281 0 0.53125 L 0 9.46875 C 0 9.761719 0.238281 10 0.53125 10 L 9.46875 10 C 9.761719 10 10 9.761719 10 9.46875 L 10 0.53125 C 10 0.238281 9.761719 0 9.46875 0 Z M 5 9.101562 C 2.738281 9.101562 0.898438 7.261719 0.898438 5 C 0.898438 2.738281 2.738281 0.898438 5 0.898438 C 7.261719 0.898438 9.101562 2.738281 9.101562 5 C 9.101562 7.261719 7.261719 9.101562 5 9.101562 Z M 5 9.101562 "/>
</g>
</svg>
