<?xml version="1.0" encoding="UTF-8"?>
<svg xmlns="http://www.w3.org/2000/svg" xmlns:xlink="http://www.w3.org/1999/xlink" width="25px" height="25px" viewBox="0 0 25 25" version="1.1">
<defs>
<linearGradient id="linear0" gradientUnits="userSpaceOnUse" x1="55.549179" y1="77.070274" x2="110.14919" y2="131.85291" gradientTransform="matrix(0.227273,0,0,0.227273,-10.213068,-15.333807)">
<stop offset="0" style="stop-color:rgb(21.960784%,49.411765%,72.156863%);stop-opacity:1;"/>
<stop offset="1" style="stop-color:rgb(21.176471%,41.176471%,58.039216%);stop-opacity:1;"/>
</linearGradient>
<linearGradient id="linear1" gradientUnits="userSpaceOnUse" x1="89.136749" y1="111.92053" x2="147.77737" y2="168.1012" gradientTransform="matrix(0.227273,0,0,0.227273,-10.213068,-15.333807)">
<stop offset="0" style="stop-color:rgb(100%,87.843137%,32.156863%);stop-opacity:1;"/>
<stop offset="1" style="stop-color:rgb(100%,76.470588%,19.215686%);stop-opacity:1;"/>
</linearGradient>
</defs>
<g id="surface1">
<path style=" stroke:none;fill-rule:nonzero;fill:url(#linear0);" d="M 12.457031 0 C 6.085938 0 6.484375 2.761719 6.484375 2.761719 L 6.492188 5.625 L 12.570312 5.625 L 12.570312 6.484375 L 4.078125 6.484375 C 4.078125 6.484375 0 6.023438 0 12.449219 C 0 18.878906 3.558594 18.652344 3.558594 18.652344 L 5.683594 18.652344 L 5.683594 15.667969 C 5.683594 15.667969 5.566406 12.109375 9.183594 12.109375 C 12.800781 12.109375 15.214844 12.109375 15.214844 12.109375 C 15.214844 12.109375 18.601562 12.164062 18.601562 8.835938 C 18.601562 5.507812 18.601562 3.332031 18.601562 3.332031 C 18.601562 3.332031 19.113281 0 12.457031 0 Z M 9.105469 1.925781 C 9.710938 1.925781 10.199219 2.414062 10.199219 3.019531 C 10.199219 3.625 9.710938 4.113281 9.105469 4.113281 C 8.5 4.113281 8.011719 3.625 8.011719 3.019531 C 8.011719 2.414062 8.5 1.925781 9.105469 1.925781 Z M 9.105469 1.925781 "/>
<path style=" stroke:none;fill-rule:nonzero;fill:url(#linear1);" d="M 12.636719 24.964844 C 19.007812 24.964844 18.613281 22.203125 18.613281 22.203125 L 18.605469 19.339844 L 12.523438 19.339844 L 12.523438 18.480469 L 21.019531 18.480469 C 21.019531 18.480469 25.097656 18.941406 25.097656 12.515625 C 25.097656 6.085938 21.539062 6.3125 21.539062 6.3125 L 19.414062 6.3125 L 19.414062 9.296875 C 19.414062 9.296875 19.527344 12.855469 15.914062 12.855469 C 12.296875 12.855469 9.882812 12.855469 9.882812 12.855469 C 9.882812 12.855469 6.496094 12.800781 6.496094 16.128906 C 6.496094 19.457031 6.496094 21.632812 6.496094 21.632812 C 6.496094 21.632812 5.980469 24.964844 12.636719 24.964844 Z M 15.992188 23.039062 C 15.386719 23.039062 14.898438 22.550781 14.898438 21.945312 C 14.898438 21.339844 15.386719 20.851562 15.992188 20.851562 C 16.59375 20.851562 17.085938 21.339844 17.085938 21.945312 C 17.085938 22.550781 16.59375 23.039062 15.992188 23.039062 Z M 15.992188 23.039062 "/>
</g>
</svg>
